<svg xmlns="http://www.w3.org/2000/svg" viewBox="0 0 500 500"><g id="freepik--background-simple--inject-50"><path d="M485.64,269.71c.09-1.07.17-2.15.31-3.22,1.5-11.49,8.48-97.86-100-206.5C269.31-56.77,141.86,74.37,119.85,108.65s-28.43,86.92-45.42,52.28c-10.5-21.41,16.88-48.23-21.91-37-24.88,7.19-71.1,70.78-33.21,180s144.3,192.62,246.57,186.54c131.52-7.82,209-103.2,202.81-110.29s-55.13,14.06-44.37-.67C434.91,365,482.55,310.25,485.64,269.71Z" style="fill:#92E3A9"></path><path d="M485.64,269.71c.09-1.07.17-2.15.31-3.22,1.5-11.49,8.48-97.86-100-206.5C269.31-56.77,141.86,74.37,119.85,108.65s-28.43,86.92-45.42,52.28c-10.5-21.41,16.88-48.23-21.91-37-24.88,7.19-71.1,70.78-33.21,180s144.3,192.62,246.57,186.54c131.52-7.82,209-103.2,202.81-110.29s-55.13,14.06-44.37-.67C434.91,365,482.55,310.25,485.64,269.71Z" style="fill:#fff;opacity:0.8"></path></g><g id="freepik--Plant--inject-50"><line x1="69.06" y1="327.53" x2="78.88" y2="421.64" style="fill:none;stroke:#263238;stroke-miterlimit:10;stroke-width:2px"></line><line x1="78.28" y1="411.15" x2="70.83" y2="403.28" style="fill:none;stroke:#263238;stroke-miterlimit:10;stroke-width:2px"></line><path d="M73.09,405.64a8.41,8.41,0,0,0-3-6.32c-1.91-1.7-12-5.94-12.93-2.39C56.16,400.78,66.46,408.35,73.09,405.64Z" style="fill:#92E3A9;stroke:#263238;stroke-miterlimit:10"></path><line x1="73.09" y1="405.64" x2="63.51" y2="399.67" style="fill:none;stroke:#263238;stroke-miterlimit:10;stroke-width:0.5px"></line><line x1="75.24" y1="382.06" x2="67.8" y2="374.2" style="fill:none;stroke:#263238;stroke-miterlimit:10;stroke-width:2px"></line><path d="M70.06,376.55a8.45,8.45,0,0,0-3-6.32c-1.91-1.7-12-5.94-12.93-2.39C53.13,371.69,63.43,379.26,70.06,376.55Z" style="fill:#92E3A9;stroke:#263238;stroke-miterlimit:10"></path><line x1="70.06" y1="376.55" x2="60.48" y2="370.58" style="fill:none;stroke:#263238;stroke-miterlimit:10;stroke-width:0.5px"></line><line x1="72.2" y1="352.85" x2="64.75" y2="344.98" style="fill:none;stroke:#263238;stroke-miterlimit:10;stroke-width:2px"></line><path d="M67,347.34A8.45,8.45,0,0,0,64,341c-1.91-1.71-12-5.94-12.93-2.4C50.08,342.48,60.38,350.05,67,347.34Z" style="fill:#92E3A9;stroke:#263238;stroke-miterlimit:10"></path><line x1="67.01" y1="347.34" x2="57.43" y2="341.37" style="fill:none;stroke:#263238;stroke-miterlimit:10;stroke-width:0.5px"></line><line x1="76.67" y1="397.13" x2="82.33" y2="387.89" style="fill:none;stroke:#263238;stroke-miterlimit:10;stroke-width:2px"></line><path d="M80.61,390.67a8.45,8.45,0,0,1,1.59-6.8c1.52-2.06,10.49-8.28,12.16-5C96.17,382.42,87.66,392,80.61,390.67Z" style="fill:#92E3A9;stroke:#263238;stroke-miterlimit:10"></path><line x1="80.61" y1="390.67" x2="89.23" y2="382.42" style="fill:none;stroke:#263238;stroke-miterlimit:10;stroke-width:0.5px"></line><line x1="74.51" y1="376.42" x2="80.17" y2="367.19" style="fill:none;stroke:#263238;stroke-miterlimit:10;stroke-width:2px"></line><path d="M78.45,370A8.42,8.42,0,0,1,80,363.17c1.52-2.07,10.49-8.29,12.16-5C94,361.71,85.5,371.24,78.45,370Z" style="fill:#92E3A9;stroke:#263238;stroke-miterlimit:10"></path><line x1="78.45" y1="369.96" x2="87.07" y2="361.72" style="fill:none;stroke:#263238;stroke-miterlimit:10;stroke-width:0.5px"></line><line x1="71.34" y1="346.06" x2="77.01" y2="336.83" style="fill:none;stroke:#263238;stroke-miterlimit:10;stroke-width:2px"></line><path d="M75.28,339.6a8.42,8.42,0,0,1,1.59-6.79c1.52-2.07,10.49-8.29,12.16-5C90.84,331.35,82.33,340.88,75.28,339.6Z" style="fill:#92E3A9;stroke:#263238;stroke-miterlimit:10"></path><line x1="75.28" y1="339.6" x2="83.9" y2="331.36" style="fill:none;stroke:#263238;stroke-miterlimit:10;stroke-width:0.5px"></line><path d="M68.92,326.65a8.4,8.4,0,0,1,1.6-6.79c1.51-2.07,10.49-8.29,12.15-5C84.48,318.4,76,327.94,68.92,326.65Z" style="fill:#92E3A9;stroke:#263238;stroke-miterlimit:10"></path><line x1="68.92" y1="326.65" x2="77.54" y2="318.41" style="fill:none;stroke:#263238;stroke-miterlimit:10;stroke-width:0.5px"></line><path d="M69.42,327a8.43,8.43,0,0,1-6.59-2.3c-1.9-1.73-7.14-11.3-3.71-12.61C62.84,310.67,71.43,320.13,69.42,327Z" style="fill:#92E3A9;stroke:#263238;stroke-miterlimit:10"></path><line x1="69.42" y1="327.01" x2="62.12" y2="317.57" style="fill:none;stroke:#263238;stroke-miterlimit:10;stroke-width:0.5px"></line><line x1="112.4" y1="349.21" x2="104.71" y2="421.67" style="fill:none;stroke:#263238;stroke-miterlimit:10;stroke-width:2px"></line><line x1="107.22" y1="403.85" x2="101.55" y2="394.62" style="fill:none;stroke:#263238;stroke-miterlimit:10;stroke-width:2px"></line><path d="M103.28,397.39a8.4,8.4,0,0,0-1.6-6.79c-1.52-2.07-10.49-8.28-12.16-5C87.71,389.15,96.23,398.68,103.28,397.39Z" style="fill:#92E3A9;stroke:#263238;stroke-miterlimit:10"></path><line x1="103.28" y1="397.39" x2="95.14" y2="389.58" style="fill:none;stroke:#263238;stroke-miterlimit:10;stroke-width:0.5px"></line><line x1="110.25" y1="374.64" x2="104.58" y2="365.4" style="fill:none;stroke:#263238;stroke-miterlimit:10;stroke-width:2px"></line><path d="M106.31,368.18a8.43,8.43,0,0,0-1.6-6.8c-1.52-2.06-10.49-8.28-12.16-5C90.74,359.93,99.26,369.46,106.31,368.18Z" style="fill:#92E3A9;stroke:#263238;stroke-miterlimit:10"></path><line x1="106.31" y1="368.18" x2="98.17" y2="360.36" style="fill:none;stroke:#263238;stroke-miterlimit:10;stroke-width:0.5px"></line><line x1="105.52" y1="418.89" x2="112.96" y2="411.02" style="fill:none;stroke:#263238;stroke-miterlimit:10;stroke-width:2px"></line><path d="M110.7,413.38a8.41,8.41,0,0,1,3-6.32c1.91-1.71,12-5.95,12.93-2.41C127.63,408.51,117.33,416.08,110.7,413.38Z" style="fill:#92E3A9;stroke:#263238;stroke-miterlimit:10"></path><line x1="110.7" y1="413.38" x2="120.84" y2="407.08" style="fill:none;stroke:#263238;stroke-miterlimit:10;stroke-width:0.5px"></line><line x1="107.66" y1="398.18" x2="115.11" y2="390.31" style="fill:none;stroke:#263238;stroke-miterlimit:10;stroke-width:2px"></line><path d="M112.85,392.67a8.41,8.41,0,0,1,3-6.32c1.91-1.71,12-6,12.93-2.41C129.78,387.8,119.48,395.37,112.85,392.67Z" style="fill:#92E3A9;stroke:#263238;stroke-miterlimit:10"></path><line x1="112.85" y1="392.67" x2="122.99" y2="386.38" style="fill:none;stroke:#263238;stroke-miterlimit:10;stroke-width:0.5px"></line><line x1="110.81" y1="367.82" x2="118.26" y2="359.95" style="fill:none;stroke:#263238;stroke-miterlimit:10;stroke-width:2px"></line><path d="M116,362.31a8.41,8.41,0,0,1,3-6.32c1.91-1.71,12-5.95,12.93-2.41C132.93,357.44,122.63,365,116,362.31Z" style="fill:#92E3A9;stroke:#263238;stroke-miterlimit:10"></path><line x1="116" y1="362.31" x2="126.14" y2="356.02" style="fill:none;stroke:#263238;stroke-miterlimit:10;stroke-width:0.5px"></line><path d="M112.44,348.33a8.46,8.46,0,0,1,3-6.32c1.91-1.71,12-5.95,12.93-2.41C129.37,343.46,119.08,351,112.44,348.33Z" style="fill:#92E3A9;stroke:#263238;stroke-miterlimit:10"></path><line x1="112.44" y1="348.33" x2="122.58" y2="342.04" style="fill:none;stroke:#263238;stroke-miterlimit:10;stroke-width:0.5px"></line><path d="M112.86,348.78a8.43,8.43,0,0,1-6-3.61c-1.5-2.08-4.66-12.53-1-13.11C109.79,331.43,116.24,342.46,112.86,348.78Z" style="fill:#92E3A9;stroke:#263238;stroke-miterlimit:10"></path><line x1="112.86" y1="348.78" x2="107.66" y2="338.04" style="fill:none;stroke:#263238;stroke-miterlimit:10;stroke-width:0.5px"></line><line x1="93.67" y1="285.09" x2="93.67" y2="421.65" style="fill:none;stroke:#263238;stroke-miterlimit:10;stroke-width:2px"></line><line x1="93.83" y1="416.85" x2="87.24" y2="408.26" style="fill:none;stroke:#263238;stroke-miterlimit:10;stroke-width:2px"></line><path d="M89.24,410.83A8.41,8.41,0,0,0,87,404.24c-1.72-1.89-11.29-7.15-12.61-3.72C72.91,404.24,82.37,412.84,89.24,410.83Z" style="fill:#92E3A9;stroke:#263238;stroke-miterlimit:10"></path><line x1="89.24" y1="410.83" x2="80.34" y2="403.9" style="fill:none;stroke:#263238;stroke-miterlimit:10;stroke-width:0.5px"></line><line x1="93.83" y1="372.92" x2="87.24" y2="364.32" style="fill:none;stroke:#263238;stroke-miterlimit:10;stroke-width:2px"></line><path d="M89.24,366.9A8.4,8.4,0,0,0,87,360.31c-1.72-1.9-11.29-7.15-12.61-3.73C72.91,360.31,82.37,368.91,89.24,366.9Z" style="fill:#92E3A9;stroke:#263238;stroke-miterlimit:10"></path><line x1="89.24" y1="366.9" x2="80.34" y2="359.97" style="fill:none;stroke:#263238;stroke-miterlimit:10;stroke-width:0.5px"></line><line x1="93.83" y1="343.68" x2="87.24" y2="335.08" style="fill:none;stroke:#263238;stroke-miterlimit:10;stroke-width:2px"></line><path d="M89.24,337.66a8.43,8.43,0,0,0-2.29-6.6c-1.72-1.89-11.29-7.15-12.61-3.72C72.91,331.06,82.37,339.66,89.24,337.66Z" style="fill:#92E3A9;stroke:#263238;stroke-miterlimit:10"></path><line x1="89.24" y1="337.66" x2="80.34" y2="330.72" style="fill:none;stroke:#263238;stroke-miterlimit:10;stroke-width:0.5px"></line><line x1="93.83" y1="314.3" x2="87.24" y2="305.7" style="fill:none;stroke:#263238;stroke-miterlimit:10;stroke-width:2px"></line><path d="M89.24,308.28A8.4,8.4,0,0,0,87,301.69c-1.72-1.9-11.29-7.15-12.61-3.73C72.91,301.69,82.37,310.29,89.24,308.28Z" style="fill:#92E3A9;stroke:#263238;stroke-miterlimit:10"></path><line x1="89.24" y1="308.28" x2="80.34" y2="301.35" style="fill:none;stroke:#263238;stroke-miterlimit:10;stroke-width:0.5px"></line><line x1="93.69" y1="406.19" x2="100.28" y2="397.59" style="fill:none;stroke:#263238;stroke-miterlimit:10;stroke-width:2px"></line><path d="M98.27,400.17a8.45,8.45,0,0,1,2.29-6.59c1.73-1.9,11.3-7.16,12.62-3.73C114.61,393.58,105.15,402.17,98.27,400.17Z" style="fill:#92E3A9;stroke:#263238;stroke-miterlimit:10"></path><line x1="98.27" y1="400.17" x2="107.71" y2="392.86" style="fill:none;stroke:#263238;stroke-miterlimit:10;stroke-width:0.5px"></line><line x1="93.69" y1="376.81" x2="100.28" y2="368.21" style="fill:none;stroke:#263238;stroke-miterlimit:10;stroke-width:2px"></line><path d="M98.27,370.79a8.45,8.45,0,0,1,2.29-6.59c1.73-1.9,11.3-7.15,12.62-3.72C114.61,364.2,105.15,372.8,98.27,370.79Z" style="fill:#92E3A9;stroke:#263238;stroke-miterlimit:10"></path><line x1="98.27" y1="370.79" x2="107.71" y2="363.49" style="fill:none;stroke:#263238;stroke-miterlimit:10;stroke-width:0.5px"></line><line x1="93.69" y1="337.99" x2="100.28" y2="329.39" style="fill:none;stroke:#263238;stroke-miterlimit:10;stroke-width:2px"></line><path d="M98.27,332a8.45,8.45,0,0,1,2.29-6.59c1.73-1.9,11.3-7.15,12.62-3.73C114.61,325.38,105.15,334,98.27,332Z" style="fill:#92E3A9;stroke:#263238;stroke-miterlimit:10"></path><line x1="98.27" y1="331.97" x2="107.71" y2="324.66" style="fill:none;stroke:#263238;stroke-miterlimit:10;stroke-width:0.5px"></line><line x1="93.69" y1="307.47" x2="100.28" y2="298.87" style="fill:none;stroke:#263238;stroke-miterlimit:10;stroke-width:2px"></line><path d="M98.27,301.45a8.47,8.47,0,0,1,2.29-6.6c1.73-1.89,11.3-7.15,12.62-3.72C114.61,294.85,105.15,303.45,98.27,301.45Z" style="fill:#92E3A9;stroke:#263238;stroke-miterlimit:10"></path><line x1="98.27" y1="301.45" x2="107.71" y2="294.14" style="fill:none;stroke:#263238;stroke-miterlimit:10;stroke-width:0.5px"></line><path d="M93.29,287.91a8.45,8.45,0,0,1,2.29-6.59c1.73-1.9,11.3-7.16,12.61-3.73C109.63,281.32,100.17,289.92,93.29,287.91Z" style="fill:#92E3A9;stroke:#263238;stroke-miterlimit:10"></path><line x1="93.29" y1="287.91" x2="102.73" y2="280.6" style="fill:none;stroke:#263238;stroke-miterlimit:10;stroke-width:0.5px"></line><path d="M93.75,288.31a8.42,8.42,0,0,1-6.31-3c-1.71-1.91-5.93-12-2.39-12.93C88.91,271.38,96.47,281.68,93.75,288.31Z" style="fill:#92E3A9;stroke:#263238;stroke-miterlimit:10"></path><line x1="93.75" y1="288.31" x2="87.48" y2="278.16" style="fill:none;stroke:#263238;stroke-miterlimit:10;stroke-width:0.5px"></line></g><g id="freepik--Table--inject-50"><line x1="22.86" y1="421.56" x2="465.65" y2="421.56" style="fill:none;stroke:#263238;stroke-linecap:round;stroke-linejoin:round"></line></g><g id="freepik--food-4--inject-50"><circle cx="404.59" cy="205.1" r="59.94" style="fill:#fff;stroke:#263238;stroke-linecap:round;stroke-linejoin:round"></circle><path d="M462.32,107.84h-9.78a20.94,20.94,0,0,0-30.82,0H411.55l4.84,17.56a21,21,0,0,0,41.41.5h0Z" style="fill:#92E3A9;stroke:#263238;stroke-linecap:round;stroke-linejoin:round"></path><circle cx="437.13" cy="104.42" r="25.76" style="fill:#92E3A9;stroke:#263238;stroke-linecap:round;stroke-linejoin:round"></circle><circle cx="437.13" cy="104.42" r="22.43" style="fill:#92E3A9;stroke:#263238;stroke-linecap:round;stroke-linejoin:round"></circle><path d="M437.13,86.81a21,21,0,0,0-21,21,20.83,20.83,0,0,0,1.33,7.3,22.43,22.43,0,0,0,39.41,0,21,21,0,0,0-19.71-28.33Z" style="fill:#fff;stroke:#263238;stroke-linecap:round;stroke-linejoin:round"></path><path d="M407.13,173.27a4.8,4.8,0,1,1-1.76-6.56A4.81,4.81,0,0,1,407.13,173.27Z" style="fill:#92E3A9;stroke:#263238;stroke-linecap:round;stroke-linejoin:round"></path><circle cx="407.76" cy="177.35" r="4.8" style="fill:#92E3A9;stroke:#263238;stroke-linecap:round;stroke-linejoin:round"></circle><circle cx="407.26" cy="184.08" r="4.8" style="fill:#92E3A9;stroke:#263238;stroke-linecap:round;stroke-linejoin:round"></circle><path d="M416.65,163a4.8,4.8,0,1,1-1.76-6.55A4.81,4.81,0,0,1,416.65,163Z" style="fill:#92E3A9;stroke:#263238;stroke-linecap:round;stroke-linejoin:round"></path><path d="M422.6,169.78a4.8,4.8,0,1,1-1.76-6.55A4.79,4.79,0,0,1,422.6,169.78Z" style="fill:#92E3A9;stroke:#263238;stroke-linecap:round;stroke-linejoin:round"></path><circle cx="405.42" cy="153.9" r="4.8" style="fill:#92E3A9;stroke:#263238;stroke-linecap:round;stroke-linejoin:round"></circle><circle cx="395.49" cy="149.47" r="4.8" style="fill:#92E3A9;stroke:#263238;stroke-linecap:round;stroke-linejoin:round"></circle><circle cx="402.14" cy="181" r="4.8" style="fill:#92E3A9;stroke:#263238;stroke-linecap:round;stroke-linejoin:round"></circle><path d="M419.47,176.22a4.8,4.8,0,1,1-1.76-6.56A4.81,4.81,0,0,1,419.47,176.22Z" style="fill:#92E3A9;stroke:#263238;stroke-linecap:round;stroke-linejoin:round"></path><path d="M411.77,167.69a4.8,4.8,0,1,1-1.76-6.55A4.8,4.8,0,0,1,411.77,167.69Z" style="fill:#92E3A9;stroke:#263238;stroke-linecap:round;stroke-linejoin:round"></path><circle cx="401.2" cy="160.31" r="4.8" style="fill:#92E3A9;stroke:#263238;stroke-linecap:round;stroke-linejoin:round"></circle><circle cx="395.46" cy="156.74" r="4.8" style="fill:#92E3A9;stroke:#263238;stroke-linecap:round;stroke-linejoin:round"></circle><circle cx="396.07" cy="166.96" r="4.8" style="fill:#92E3A9;stroke:#263238;stroke-linecap:round;stroke-linejoin:round"></circle><path d="M414.11,167.23a57.84,57.84,0,0,0-6.59-7.23l6.18-7.83s-.36-2.55-2.29-.54c0,0-2.92,3.26-5.76,6.82a51.44,51.44,0,0,1-3.71,4.2,27.89,27.89,0,0,1-5.24-1.3c-2.56-1-5.1-2.42-5.47-1.33s2.62,1.77,4.49,2.58a36.79,36.79,0,0,0,4.68,1.52,14.46,14.46,0,0,1-2,1.57c-1.57.91-2.41,1.47-4.59,2.55s-3.5,2.92-2.3,3.09,9.71-3.76,12-6.35l2.27-2.59s3.1.49,4.38,2.78,5.81,7.51,6.48,6.34S416.73,170.81,414.11,167.23Z" style="fill:#a6a6a6;stroke:#263238;stroke-linecap:round;stroke-linejoin:round"></path><circle cx="390.13" cy="162.06" r="4.8" style="fill:#92E3A9;stroke:#263238;stroke-linecap:round;stroke-linejoin:round"></circle><circle cx="396.14" cy="175.85" r="4.8" style="fill:#92E3A9;stroke:#263238;stroke-linecap:round;stroke-linejoin:round"></circle><path d="M399.31,188.08a4.8,4.8,0,1,1-1.76-6.56A4.8,4.8,0,0,1,399.31,188.08Z" style="fill:#92E3A9;stroke:#263238;stroke-linecap:round;stroke-linejoin:round"></path><circle cx="390.75" cy="191.98" r="4.8" style="fill:#92E3A9;stroke:#263238;stroke-linecap:round;stroke-linejoin:round"></circle><circle cx="375.99" cy="185.55" r="4.8" style="fill:#92E3A9;stroke:#263238;stroke-linecap:round;stroke-linejoin:round"></circle><circle cx="384.16" cy="188.96" r="4.8" style="fill:#92E3A9;stroke:#263238;stroke-linecap:round;stroke-linejoin:round"></circle><circle cx="379.34" cy="201.26" r="4.8" style="fill:#92E3A9;stroke:#263238;stroke-linecap:round;stroke-linejoin:round"></circle><circle cx="386.73" cy="195.64" r="4.8" style="fill:#92E3A9;stroke:#263238;stroke-linecap:round;stroke-linejoin:round"></circle><path d="M381.4,195.69a4.8,4.8,0,1,1-1.76-6.55A4.78,4.78,0,0,1,381.4,195.69Z" style="fill:#92E3A9;stroke:#263238;stroke-linecap:round;stroke-linejoin:round"></path><circle cx="387.87" cy="184.34" r="4.8" transform="translate(-40.96 207.38) rotate(-28.49)" style="fill:#92E3A9;stroke:#263238;stroke-linecap:round;stroke-linejoin:round"></circle><path d="M385.29,186.23a4.8,4.8,0,1,1-1.76-6.55A4.79,4.79,0,0,1,385.29,186.23Z" style="fill:#92E3A9;stroke:#263238;stroke-linecap:round;stroke-linejoin:round"></path><circle cx="405.91" cy="172.9" r="4.8" style="fill:#92E3A9;stroke:#263238;stroke-linecap:round;stroke-linejoin:round"></circle><circle cx="388.31" cy="178.61" r="4.8" style="fill:#92E3A9;stroke:#263238;stroke-linecap:round;stroke-linejoin:round"></circle><circle cx="381.88" cy="164.51" r="4.8" style="fill:#92E3A9;stroke:#263238;stroke-linecap:round;stroke-linejoin:round"></circle><circle cx="386.87" cy="170.51" r="4.8" style="fill:#92E3A9;stroke:#263238;stroke-linecap:round;stroke-linejoin:round"></circle><circle cx="377.18" cy="177.4" r="4.8" style="fill:#92E3A9;stroke:#263238;stroke-linecap:round;stroke-linejoin:round"></circle><circle cx="387.5" cy="156.57" r="4.8" style="fill:#92E3A9;stroke:#263238;stroke-linecap:round;stroke-linejoin:round"></circle><circle cx="382.98" cy="176.58" r="4.8" style="fill:#92E3A9;stroke:#263238;stroke-linecap:round;stroke-linejoin:round"></circle><circle cx="377.82" cy="169.97" r="4.8" style="fill:#92E3A9;stroke:#263238;stroke-linecap:round;stroke-linejoin:round"></circle><circle cx="420.31" cy="172.81" r="4.8" style="fill:#92E3A9;stroke:#263238;stroke-linecap:round;stroke-linejoin:round"></circle><circle cx="413.29" cy="182.28" r="4.8" style="fill:#92E3A9;stroke:#263238;stroke-linecap:round;stroke-linejoin:round"></circle><circle cx="400.79" cy="189.45" r="4.8" transform="translate(-12.69 29.58) rotate(-4.16)" style="fill:#92E3A9;stroke:#263238;stroke-linecap:round;stroke-linejoin:round"></circle><circle cx="379.87" cy="156.59" r="4.8" style="fill:#92E3A9;stroke:#263238;stroke-linecap:round;stroke-linejoin:round"></circle><circle cx="389.58" cy="166.35" r="4.8" style="fill:#92E3A9;stroke:#263238;stroke-linecap:round;stroke-linejoin:round"></circle><path d="M376.15,182.89a4.8,4.8,0,1,1-1.76-6.56A4.8,4.8,0,0,1,376.15,182.89Z" style="fill:#92E3A9;stroke:#263238;stroke-linecap:round;stroke-linejoin:round"></path><circle cx="371.22" cy="191.75" r="4.8" style="fill:#92E3A9;stroke:#263238;stroke-linecap:round;stroke-linejoin:round"></circle><path d="M428.7,160.93s-8.44,13.68-12.23,19.79-9.89,10.77-7.86,12.81,16,14.26,18.92,15.72,23-27.36,24.16-29.11S435.1,162.09,428.7,160.93Z" style="fill:#fff;stroke:#263238;stroke-linecap:round;stroke-linejoin:round"></path><path d="M417.64,192.22a1.31,1.31,0,1,1-1.31-1.31A1.31,1.31,0,0,1,417.64,192.22Z" style="fill:#fff;stroke:#263238;stroke-linecap:round;stroke-linejoin:round"></path><path d="M429.28,198a1.6,1.6,0,1,1-1.6-1.6A1.6,1.6,0,0,1,429.28,198Z" style="fill:#fff;stroke:#263238;stroke-linecap:round;stroke-linejoin:round"></path><path d="M426.08,185.82a1,1,0,1,1-1-1A1,1,0,0,1,426.08,185.82Z" style="fill:#fff;stroke:#263238;stroke-linecap:round;stroke-linejoin:round"></path><path d="M431.32,178a1.31,1.31,0,1,1-1.31-1.31A1.31,1.31,0,0,1,431.32,178Z" style="fill:#fff;stroke:#263238;stroke-linecap:round;stroke-linejoin:round"></path><path d="M444.42,180.87a1.31,1.31,0,1,1-1.31-1.31A1.31,1.31,0,0,1,444.42,180.87Z" style="fill:#fff;stroke:#263238;stroke-linecap:round;stroke-linejoin:round"></path><path d="M438.59,188.87a1.16,1.16,0,1,1-1.16-1.16A1.16,1.16,0,0,1,438.59,188.87Z" style="fill:#fff;stroke:#263238;stroke-linecap:round;stroke-linejoin:round"></path><circle cx="424.04" cy="178.98" r="1.16" style="fill:#fff;stroke:#263238;stroke-linecap:round;stroke-linejoin:round"></circle><path d="M434.81,170.1a1.31,1.31,0,1,1-1.31-1.31A1.31,1.31,0,0,1,434.81,170.1Z" style="fill:#fff;stroke:#263238;stroke-linecap:round;stroke-linejoin:round"></path><path d="M434.23,196.88a1,1,0,1,1-1-1A1,1,0,0,1,434.23,196.88Z" style="fill:#fff;stroke:#263238;stroke-linecap:round;stroke-linejoin:round"></path><path d="M444.54,176.89s-12.33,10.33-17.84,14.93-12.79,7.11-11.5,9.68,10.7,18.58,13,20.88,30.45-18.72,32.1-20S450.25,180,444.54,176.89Z" style="fill:#fff;stroke:#263238;stroke-linecap:round;stroke-linejoin:round"></path><path d="M424.18,203.1a1.31,1.31,0,1,1-.83-1.65A1.31,1.31,0,0,1,424.18,203.1Z" style="fill:#fff;stroke:#263238;stroke-linecap:round;stroke-linejoin:round"></path><path d="M433.39,212.3a1.6,1.6,0,0,1-3-1,1.6,1.6,0,1,1,3,1Z" style="fill:#fff;stroke:#263238;stroke-linecap:round;stroke-linejoin:round"></path><path d="M434.21,199.69a1,1,0,1,1-.65-1.29A1,1,0,0,1,434.21,199.69Z" style="fill:#fff;stroke:#263238;stroke-linecap:round;stroke-linejoin:round"></path><path d="M441.66,193.88a1.31,1.31,0,0,1-2.49-.83,1.31,1.31,0,0,1,2.49.83Z" style="fill:#fff;stroke:#263238;stroke-linecap:round;stroke-linejoin:round"></path><path d="M453.17,200.77a1.31,1.31,0,1,1-2.49-.83,1.33,1.33,0,0,1,1.66-.83A1.31,1.31,0,0,1,453.17,200.77Z" style="fill:#fff;stroke:#263238;stroke-linecap:round;stroke-linejoin:round"></path><path d="M445.12,206.53a1.16,1.16,0,1,1-.74-1.47A1.16,1.16,0,0,1,445.12,206.53Z" style="fill:#fff;stroke:#263238;stroke-linecap:round;stroke-linejoin:round"></path><path d="M435.53,192.92a1.16,1.16,0,1,1-2.21-.73,1.18,1.18,0,0,1,1.48-.74A1.15,1.15,0,0,1,435.53,192.92Z" style="fill:#fff;stroke:#263238;stroke-linecap:round;stroke-linejoin:round"></path><path d="M447.45,187.52a1.31,1.31,0,1,1-.83-1.65A1.31,1.31,0,0,1,447.45,187.52Z" style="fill:#fff;stroke:#263238;stroke-linecap:round;stroke-linejoin:round"></path><path d="M438.45,212.75a1,1,0,0,1-1.28.65,1,1,0,0,1-.65-1.29,1,1,0,0,1,1.29-.65A1,1,0,0,1,438.45,212.75Z" style="fill:#fff;stroke:#263238;stroke-linecap:round;stroke-linejoin:round"></path><path d="M449.8,199.26S434,202.38,427,203.76s-14.62.07-14.73,3,.43,21.44,1.35,24.56,35.69-1.76,37.77-2.09S453.3,204.74,449.8,199.26Z" style="fill:#fff;stroke:#263238;stroke-linecap:round;stroke-linejoin:round"></path><path d="M419.34,212.43a1.31,1.31,0,1,1-1.78-1.92,1.31,1.31,0,1,1,1.78,1.92Z" style="fill:#fff;stroke:#263238;stroke-linecap:round;stroke-linejoin:round"></path><path d="M423,224.93a1.6,1.6,0,1,1,.08-2.26A1.6,1.6,0,0,1,423,224.93Z" style="fill:#fff;stroke:#263238;stroke-linecap:round;stroke-linejoin:round"></path><path d="M429.77,214.27a1,1,0,1,1,.06-1.44A1,1,0,0,1,429.77,214.27Z" style="fill:#fff;stroke:#263238;stroke-linecap:round;stroke-linejoin:round"></path><path d="M439.1,212.76a1.31,1.31,0,1,1,.07-1.85A1.31,1.31,0,0,1,439.1,212.76Z" style="fill:#fff;stroke:#263238;stroke-linecap:round;stroke-linejoin:round"></path><path d="M445.87,224.34a1.31,1.31,0,1,1,.07-1.85A1.31,1.31,0,0,1,445.87,224.34Z" style="fill:#fff;stroke:#263238;stroke-linecap:round;stroke-linejoin:round"></path><path d="M436.05,225.52a1.17,1.17,0,1,1,.06-1.65A1.17,1.17,0,0,1,436.05,225.52Z" style="fill:#fff;stroke:#263238;stroke-linecap:round;stroke-linejoin:round"></path><path d="M434.19,209a1.16,1.16,0,1,1,.06-1.64A1.16,1.16,0,0,1,434.19,209Z" style="fill:#fff;stroke:#263238;stroke-linecap:round;stroke-linejoin:round"></path><path d="M447.23,210a1.29,1.29,0,0,1-1.85-.07,1.31,1.31,0,1,1,1.85.07Z" style="fill:#fff;stroke:#263238;stroke-linecap:round;stroke-linejoin:round"></path><path d="M427.21,227.76a1,1,0,1,1,.05-1.44A1,1,0,0,1,427.21,227.76Z" style="fill:#fff;stroke:#263238;stroke-linecap:round;stroke-linejoin:round"></path><path d="M385.09,227.32l20.27,9.36A29,29,0,1,0,383,247.18a29.65,29.65,0,0,0,5.54-.53Z" style="fill:#fff;stroke:#263238;stroke-linecap:round;stroke-linejoin:round"></path><path d="M385.09,225l20.27,9.35a29,29,0,1,0-16.81,10Z" style="fill:#fff;stroke:#263238;stroke-linecap:round;stroke-linejoin:round"></path><circle cx="360.04" cy="216.56" r="2.37" style="fill:#fff;stroke:#263238;stroke-linecap:round;stroke-linejoin:round"></circle><path d="M368,225.9a1.35,1.35,0,1,1-1.35-1.35A1.34,1.34,0,0,1,368,225.9Z" style="fill:#fff;stroke:#263238;stroke-linecap:round;stroke-linejoin:round"></path><circle cx="373.55" cy="216.1" r="1.24" style="fill:#fff;stroke:#263238;stroke-linecap:round;stroke-linejoin:round"></circle><path d="M377.5,202.81a1.24,1.24,0,1,1-1.24-1.23A1.24,1.24,0,0,1,377.5,202.81Z" style="fill:#fff;stroke:#263238;stroke-linecap:round;stroke-linejoin:round"></path><path d="M400,219.15A1.13,1.13,0,1,1,398.9,218,1.12,1.12,0,0,1,400,219.15Z" style="fill:#fff;stroke:#263238;stroke-linecap:round;stroke-linejoin:round"></path><path d="M401.6,205.07a1,1,0,1,1-1-1A1,1,0,0,1,401.6,205.07Z" style="fill:#fff;stroke:#263238;stroke-linecap:round;stroke-linejoin:round"></path><circle cx="387.86" cy="209.23" r="1.13" style="fill:#fff;stroke:#263238;stroke-linecap:round;stroke-linejoin:round"></circle><path d="M413.48,224.25s-3.56,1.67-4.53,5,.85,7.65,3.09,10.35,5.07,6.39,7.29,7.23c5.74,2.16,8.05-6.35,6.95-10.26-.44-1.59,2.52-3.27.47-8.62S416.6,221.36,413.48,224.25Z" style="fill:#92E3A9;stroke:#263238;stroke-linecap:round;stroke-linejoin:round"></path><path d="M415.44,222.85a3.12,3.12,0,0,0-2.93-.73,28,28,0,0,0-3.66,1.31s1.59,1.19,2.55,1.08A24.46,24.46,0,0,0,415.44,222.85Z" style="fill:#263238"></path><path d="M415.44,222.85a12.4,12.4,0,0,1,.35-3c.37-1.24,1.22-2.76,1.24-3.49s1.82-.29,1.36,1.78S415.44,222.85,415.44,222.85Z" style="fill:#263238"></path><path d="M413.89,234.43l-.09.1a.57.57,0,0,1-.81,0,22.26,22.26,0,0,1-1.89-2.76.58.58,0,0,1,.21-.79.56.56,0,0,1,.78.21,21.07,21.07,0,0,0,1.74,2.56A.59.59,0,0,1,413.89,234.43Z" style="fill:#263238"></path><path d="M418.1,232.74a.55.55,0,0,1-.35.24.56.56,0,0,1-.69-.42l-.82-3.5a.57.57,0,0,1,.43-.69.57.57,0,0,1,.69.42l.82,3.5A.59.59,0,0,1,418.1,232.74Z" style="fill:#263238"></path><path d="M421.77,231.44a.6.6,0,0,1-.64.24.59.59,0,0,1-.4-.71l.87-3.14a.58.58,0,0,1,1.11.31l-.87,3.13A.87.87,0,0,1,421.77,231.44Z" style="fill:#263238"></path><path d="M416.41,240.07a.56.56,0,0,1-.79.17l-1.77-1.15a.58.58,0,0,1-.16-.8.57.57,0,0,1,.79-.16l1.77,1.15A.57.57,0,0,1,416.41,240.07Z" style="fill:#263238"></path><path d="M418.63,237.82a.61.61,0,0,1-.24.21.57.57,0,0,1-.76-.28l-.81-1.71a.57.57,0,0,1,.28-.76.56.56,0,0,1,.76.27l.81,1.71A.61.61,0,0,1,418.63,237.82Z" style="fill:#263238"></path><path d="M422.26,236.35a.59.59,0,0,1-.53.26.59.59,0,0,1-.53-.62l.13-1.55a.57.57,0,1,1,1.14.09l-.12,1.55A.62.62,0,0,1,422.26,236.35Z" style="fill:#263238"></path><path d="M420,243.62a.53.53,0,0,1-.13.13.56.56,0,0,1-.8-.09l-1.22-1.54a.57.57,0,0,1,.9-.71L420,243A.57.57,0,0,1,420,243.62Z" style="fill:#263238"></path><path d="M422.62,242.36a.58.58,0,0,1-1.06-.29l-.08-2.13a.57.57,0,0,1,.55-.6.57.57,0,0,1,.6.55l.08,2.13A.58.58,0,0,1,422.62,242.36Z" style="fill:#263238"></path><path d="M424.52,236.05a.58.58,0,0,1-.68.23.59.59,0,0,1-.34-.75,34.65,34.65,0,0,0,1.24-3.62.58.58,0,0,1,1.15.14,38.76,38.76,0,0,1-1.31,3.89A.24.24,0,0,1,424.52,236.05Z" style="fill:#263238"></path><path d="M413.71,229.72a.63.63,0,0,1-.36.25.58.58,0,0,1-.68-.45l-.51-2.4a.59.59,0,0,1,.45-.68.57.57,0,0,1,.68.45l.5,2.4A.58.58,0,0,1,413.71,229.72Z" style="fill:#263238"></path><path d="M420,227.77a.7.7,0,0,1-.22.2.59.59,0,0,1-.78-.25c-.45-.89-1.5-2.9-1.5-2.9l1-.53,1.51,2.91A.55.55,0,0,1,420,227.77Z" style="fill:#263238"></path><path d="M440.32,228.56s-3.35-2.06-6.7-1-5.93,4.9-7,8.25-2.58,7.74-2.07,10.06c1.34,6,9.73,3.25,12.4.2,1.08-1.24,4.11.31,7.46-4.33S444.45,229.59,440.32,228.56Z" style="fill:#92E3A9;stroke:#263238;stroke-linecap:round;stroke-linejoin:round"></path><path d="M442.56,229.44a3.12,3.12,0,0,0-1-2.85,27.24,27.24,0,0,0-3.1-2.36s-.12,2,.5,2.73A24.16,24.16,0,0,0,442.56,229.44Z" style="fill:#263238"></path><path d="M442.56,229.44a13,13,0,0,1,2.73-1.37,31,31,0,0,0,3.59-.86c.62-.38,1.24,1.36-.74,2.1S442.56,229.44,442.56,229.44Z" style="fill:#263238"></path><path d="M432,234.47a.34.34,0,0,1-.14,0,.56.56,0,0,1-.42-.69,21.67,21.67,0,0,1,1.28-3.09.57.57,0,0,1,1,.51,21.35,21.35,0,0,0-1.19,2.86A.58.58,0,0,1,432,234.47Z" style="fill:#263238"></path><path d="M435.75,237.07a.57.57,0,0,1-.42-1l2.48-2.6a.57.57,0,1,1,.83.79l-2.48,2.61A.54.54,0,0,1,435.75,237.07Z" style="fill:#263238"></path><path d="M438.84,239.43a.58.58,0,0,1-.54-.4.57.57,0,0,1,.37-.72l3.1-1a.57.57,0,0,1,.35,1.09l-3.1,1Z" style="fill:#263238"></path><path d="M428.68,239.68a.58.58,0,0,1-.57-.58V237a.58.58,0,1,1,1.15,0v2.1A.58.58,0,0,1,428.68,239.68Z" style="fill:#263238"></path><path d="M431.78,240.3a.55.55,0,0,1-.3-.09.57.57,0,0,1-.19-.79l1-1.61a.58.58,0,0,1,.79-.19.57.57,0,0,1,.19.79l-1,1.61A.58.58,0,0,1,431.78,240.3Z" style="fill:#263238"></path><path d="M435,242.53a.57.57,0,0,1-.5-.3.57.57,0,0,1,.23-.78l1.36-.75a.58.58,0,0,1,.55,1l-1.36.75A.68.68,0,0,1,435,242.53Z" style="fill:#263238"></path><path d="M427.69,244.63a.57.57,0,0,1-.54-.75l.62-1.86a.58.58,0,0,1,.72-.37.59.59,0,0,1,.37.73l-.62,1.86A.58.58,0,0,1,427.69,244.63Z" style="fill:#263238"></path><path d="M430.17,246.12a.57.57,0,0,1-.47-.24.58.58,0,0,1,.14-.8l1.73-1.24a.57.57,0,0,1,.67.93L430.5,246A.51.51,0,0,1,430.17,246.12Z" style="fill:#263238"></path><path d="M436.49,244.26a.58.58,0,0,1-.56-.45.57.57,0,0,1,.43-.68,38.14,38.14,0,0,0,3.71-.95.58.58,0,0,1,.77.26.57.57,0,0,1-.25.77,37.37,37.37,0,0,1-4,1Z" style="fill:#263238"></path><path d="M435.87,231.75a.6.6,0,0,1-.41-.17.59.59,0,0,1,0-.82L437.2,229a.58.58,0,0,1,.81,0,.56.56,0,0,1,0,.81l-1.73,1.74A.58.58,0,0,1,435.87,231.75Z" style="fill:#263238"></path><path d="M441,236a.48.48,0,0,1-.28-.08.57.57,0,0,1-.22-.78c.5-.87,1.61-2.85,1.61-2.85l1,.57s-1.11,2-1.61,2.85A.57.57,0,0,1,441,236Z" style="fill:#263238"></path><path d="M414.28,250.24s1.52-3.63,0-6.79-5.75-5.1-9.23-5.61-8-1.36-10.25-.49c-5.71,2.23-1.72,10.1,1.7,12.27,1.4.89.33,4.12,5.43,6.72S413.89,254.47,414.28,250.24Z" style="fill:#92E3A9;stroke:#263238;stroke-linecap:round;stroke-linejoin:round"></path><path d="M413.76,252.58a3.12,3.12,0,0,0,2.66-1.41,28.1,28.1,0,0,0,1.85-3.43s-2,.18-2.62.91A23.77,23.77,0,0,0,413.76,252.58Z" style="fill:#263238"></path><path d="M413.76,252.58a12.86,12.86,0,0,1,1.76,2.49,33,33,0,0,0,1.41,3.42c.46.55-1.16,1.43-2.19-.42S413.76,252.58,413.76,252.58Z" style="fill:#263238"></path><path d="M407.16,243a.33.33,0,0,1,0-.14.57.57,0,0,1,.62-.52,21.77,21.77,0,0,1,3.25.79.58.58,0,0,1,.38.72.58.58,0,0,1-.73.38,20.86,20.86,0,0,0-3-.75A.57.57,0,0,1,407.16,243Z" style="fill:#263238"></path><path d="M405.16,247a.55.55,0,0,1,.1-.41.57.57,0,0,1,.8-.15l2.95,2a.58.58,0,0,1-.66,1l-3-2.05A.61.61,0,0,1,405.16,247Z" style="fill:#263238"></path><path d="M403.31,250.45a.57.57,0,0,1,1.08-.35l1.46,2.91a.57.57,0,0,1-1,.51l-1.45-2.91A.52.52,0,0,1,403.31,250.45Z" style="fill:#263238"></path><path d="M401.5,240.44a.58.58,0,0,1,.48-.65l2.09-.33a.58.58,0,0,1,.17,1.14l-2.08.32A.58.58,0,0,1,401.5,240.44Z" style="fill:#263238"></path><path d="M401.37,243.6a.48.48,0,0,1,0-.31.58.58,0,0,1,.75-.31l1.74.73a.58.58,0,0,1,.31.75.56.56,0,0,1-.75.31l-1.75-.73A.57.57,0,0,1,401.37,243.6Z" style="fill:#263238"></path><path d="M399.66,247.12a.55.55,0,0,1,.22-.54.57.57,0,0,1,.8.11l.95,1.23a.59.59,0,0,1-.11.81.57.57,0,0,1-.8-.11l-1-1.23A.54.54,0,0,1,399.66,247.12Z" style="fill:#263238"></path><path d="M396.45,240.22a.55.55,0,0,1,0-.18.58.58,0,0,1,.66-.47l1.93.33a.57.57,0,1,1-.19,1.13l-1.93-.33A.58.58,0,0,1,396.45,240.22Z" style="fill:#263238"></path><path d="M395.37,242.9a.57.57,0,0,1,1-.49l1.5,1.53a.58.58,0,0,1-.83.8l-1.49-1.52A.56.56,0,0,1,395.37,242.9Z" style="fill:#263238"></path><path d="M398.17,248.86a.58.58,0,0,1,1.11-.3,38.05,38.05,0,0,0,1.5,3.52.58.58,0,0,1-.14.8.57.57,0,0,1-.8-.13,36,36,0,0,1-1.63-3.77A.56.56,0,0,1,398.17,248.86Z" style="fill:#263238"></path><path d="M410.45,246.33a.56.56,0,0,1,.1-.43.58.58,0,0,1,.8-.13l2,1.45a.57.57,0,0,1,.13.8.58.58,0,0,1-.81.13l-2-1.45A.57.57,0,0,1,410.45,246.33Z" style="fill:#263238"></path><path d="M407.06,252a.74.74,0,0,1,0-.29.58.58,0,0,1,.75-.33l3.06,1.15-.41,1.08-3.06-1.16A.57.57,0,0,1,407.06,252Z" style="fill:#263238"></path></g><g id="freepik--food-3--inject-50"><circle cx="316.62" cy="81.45" r="59.94" style="fill:#fff;stroke:#263238;stroke-linecap:round;stroke-linejoin:round"></circle><path d="M293.17,63.28a42.91,42.91,0,0,1-8.3-4.08c-5.49-3.24-13.79-3.1-14.92-.28s.57,5.2-.56,6.61-3.66,1.69-3.38,3.1,3,2.11,2.54,3-2.12,2.53-1.55,3.24a16.63,16.63,0,0,0,2.39,2s1.83-1.27-1.55,2-2.39,5.06-2.39,5.06,1.13,1.55.7,2.81,1.27,2.11,1.27,2.11A4.84,4.84,0,0,1,269,92.12c-.14,1.83,1.4,4.22,1.4,4.22s6.34,2,6.2,3-1.41,2.81-1.13,3.8,3.09.7,3.94.7,1.69.84,1.55,3.52,1.68,3.23,1.68,3.23,5.21,1.83,5.35,2.39-2.53,1.69,1.69,1.55,6.33.42,4.5-1.12-3.8-4.22-5.63-4.51-4.92-2.81-2.53-3.23a9.14,9.14,0,0,1,4.79.7L292,108l3.94,1s-3.66,2.12-.56,3.1,3.94-.28,4.08.84.7,3.52.7,3.52-.56-.7,1.55,0,1.69-15,.42-16.6a25.12,25.12,0,0,0-4.64-3.66l1.41-4.5-.85-3.24S284.87,84.52,293.17,63.28Z" style="fill:#92E3A9;stroke:#263238;stroke-linecap:round;stroke-linejoin:round"></path><path d="M270.94,76.93s3.8-.71,8-1.27,2.67-1.41,4.64-2.11,2.81,0,2.81,0" style="fill:none;stroke:#263238;stroke-linecap:round;stroke-linejoin:round"></path><path d="M269.67,70.31c.42,0,6.19.43,10.13.85s5.91-1.27,5.91-1.27h1.83" style="fill:none;stroke:#263238;stroke-linecap:round;stroke-linejoin:round"></path><path d="M271.5,92.4s7.6-3.37,9-3.37,2.4,1.26,3.38-.57.28-2.95,1.13-3.65,0-.57.84-.71" style="fill:none;stroke:#263238;stroke-linecap:round;stroke-linejoin:round"></path><path d="M281.07,102.11c2.67-.7,1-4.64,3.94-4.92s4.5-.14,7.17-1,3.8-1.55,3.94-2" style="fill:none;stroke:#263238;stroke-linecap:round;stroke-linejoin:round"></path><path d="M308.64,51.74s-.84-3.66.43-5.63,6.33-1.26,8-.84,3.8,1.83,3.8-1.12-.7-4.37-1.83-5.07.43-2.25-1.26-2.95a17.3,17.3,0,0,0-2.39-.71c-1.13-.42-1.69-2.67-3.38-2.67s-1.69,1.12-2.67.56-2-2-3.1-1.69a8.22,8.22,0,0,0-2.67,1.83,2.83,2.83,0,0,0-2.11-.42c-1.13.28-1.27,1.27-2.68,1.27s-3.37-2-4.22-1.41a6.82,6.82,0,0,0-2.25,2.25c-.14.56-2.11-.28-2.95.84s-1.27,2.4-1.83,2.68-2,.56-2,1,.28,1.69,0,2.11a5.12,5.12,0,0,1-1.13,1s.43,1.83-.14,2.39A21.36,21.36,0,0,1,281.21,47s1.4,1.41.7,2-1.69.42-2,1,.42,2.25.42,2.25,2.68,1.41,4.08,2.26,2.54,1.82,6.76-.71,8.44-2.67,10-1.83S305,56,305,56,307.38,57,308.64,51.74Z" style="fill:#92E3A9;stroke:#263238;stroke-linecap:round;stroke-linejoin:round"></path><path d="M311,34.44a2.71,2.71,0,0,0-1.68,2.67,27.63,27.63,0,0,1-1.27,6l-1.41,2.39" style="fill:none;stroke:#263238;stroke-linecap:round;stroke-linejoin:round"></path><path d="M316.94,38.24a15.62,15.62,0,0,0-3.37,2.67A32.1,32.1,0,0,1,310.19,44" style="fill:none;stroke:#263238;stroke-linecap:round;stroke-linejoin:round"></path><path d="M295.28,35.42s3.51,3.66,3.8,5.91" style="fill:none;stroke:#263238;stroke-linecap:round;stroke-linejoin:round"></path><path d="M287.12,42.32a12.9,12.9,0,0,0,3.51,2.39c1.41.42,3.1,1,3.1,1s3.38,1.41,4.78,2" style="fill:none;stroke:#263238;stroke-linecap:round;stroke-linejoin:round"></path><path d="M347.12,89.86s3.59,1.1,4.66,3.18-2.07,6.12-3.29,7.37-3.48,2.37-.92,3.85,4.13,1.57,5.3.95,1.74,1.49,3.19.38.88-1,1.81-1.71,3.15-.13,4-1.59-.13-2,.85-2.59,2.69-.72,3-1.84a8.25,8.25,0,0,0-.24-3.23A2.81,2.81,0,0,0,366.91,93c.32-1.12-.46-1.73.24-3s3.4-1.94,3.33-2.95a6.71,6.71,0,0,0-.82-3.08c-.42-.4,1.3-1.68.75-3S369,78.77,369,78.14s.5-2,.13-2.2-1.6-.6-1.83-1a5.42,5.42,0,0,1-.28-1.47s-1.8-.55-2-1.32a20.93,20.93,0,0,1,0-3.6s-1.92.52-2.06-.37.48-1.68.14-2.2-2.16-.76-2.16-.76-2.56,1.61-4,2.4-2.86,1.28-2.78,6.2-1.91,8.65-3.41,9.56-5.44,1.25-5.44,1.25S343.24,86.16,347.12,89.86Z" style="fill:#92E3A9;stroke:#263238;stroke-linecap:round;stroke-linejoin:round"></path><path d="M360.9,100.59a2.72,2.72,0,0,0-1.47-2.8,27.67,27.67,0,0,1-4.6-4.12l-1.37-2.42" style="fill:none;stroke:#263238;stroke-linecap:round;stroke-linejoin:round"></path><path d="M354.66,103.81a15.83,15.83,0,0,0-.63-4.26,33.8,33.8,0,0,1-1-4.48" style="fill:none;stroke:#263238;stroke-linecap:round;stroke-linejoin:round"></path><path d="M367.94,86.46s-4.93,1.21-7,.33" style="fill:none;stroke:#263238;stroke-linecap:round;stroke-linejoin:round"></path><path d="M366.05,75.94a12.84,12.84,0,0,0-3.83,1.85c-1.07,1-2.4,2.19-2.4,2.19s-2.91,2.22-4.1,3.15" style="fill:none;stroke:#263238;stroke-linecap:round;stroke-linejoin:round"></path><circle cx="284.24" cy="61.74" r="12.45" style="fill:#fff;stroke:#263238;stroke-linecap:round;stroke-linejoin:round"></circle><circle cx="284.24" cy="60.39" r="12.45" style="fill:#fff;stroke:#263238;stroke-linecap:round;stroke-linejoin:round"></circle><circle cx="284.24" cy="60.39" r="11.12" transform="translate(-1.32 114.18) rotate(-22.66)" style="fill:#fff;stroke:#263238;stroke-linecap:round;stroke-linejoin:round;stroke-width:0.75px"></circle><path d="M285.44,59.26a1.47,1.47,0,0,0,1.44-1.61c0-1.6-2.15-2.81-4.67-1.6s-4.19,3.48-3.59,3.74,3.23-.13,3,.54-3.11.54-3.83.54A1.4,1.4,0,0,0,276.59,63c.59,1.47.36-.4,2.39-.4s3.59.13,3.11.53-2.87,1.21-1.19,1.47,7.42.14,6.94-.93-3-1.48-1.8-1.88,2.4-1.07,3.24-.93,2-1.34,1-1.74S287.24,59.66,285.44,59.26Z" style="fill:none;stroke:#263238;stroke-linecap:round;stroke-linejoin:round;stroke-width:0.75px"></path><path d="M285,53.37s-1.87-4-1.61-1.74S284.64,55.51,285,53.37Z" style="fill:none;stroke:#263238;stroke-linecap:round;stroke-linejoin:round;stroke-width:0.75px"></path><path d="M280.41,55.08s-3.06-3.21-2.08-1.14S280.71,57.24,280.41,55.08Z" style="fill:none;stroke:#263238;stroke-linecap:round;stroke-linejoin:round;stroke-width:0.75px"></path><path d="M289.59,55.08s3.06-3.21,2.08-1.14S289.29,57.24,289.59,55.08Z" style="fill:none;stroke:#263238;stroke-linecap:round;stroke-linejoin:round;stroke-width:0.75px"></path><path d="M291.06,61.8s4.42-.34,2.31.54S289.4,63.21,291.06,61.8Z" style="fill:none;stroke:#263238;stroke-linecap:round;stroke-linejoin:round;stroke-width:0.75px"></path><path d="M289.32,65s4,1.86,1.74,1.6S287.18,65.43,289.32,65Z" style="fill:none;stroke:#263238;stroke-linecap:round;stroke-linejoin:round;stroke-width:0.75px"></path><path d="M286.38,68.78s-1.28-4.24-1.34-2S285.68,70.84,286.38,68.78Z" style="fill:none;stroke:#263238;stroke-linecap:round;stroke-linejoin:round;stroke-width:0.75px"></path><path d="M280.49,66.75s-2.33,3.78-.57,2.3S282.5,65.91,280.49,66.75Z" style="fill:none;stroke:#263238;stroke-linecap:round;stroke-linejoin:round;stroke-width:0.75px"></path><circle cx="303.09" cy="50.59" r="11.22" style="fill:#fff;stroke:#263238;stroke-linecap:round;stroke-linejoin:round"></circle><circle cx="303.09" cy="49.37" r="11.22" style="fill:#fff;stroke:#263238;stroke-linecap:round;stroke-linejoin:round"></circle><circle cx="303.09" cy="49.37" r="10.02" transform="translate(183.39 332.16) rotate(-76.31)" style="fill:#fff;stroke:#263238;stroke-linecap:round;stroke-linejoin:round;stroke-width:0.75px"></circle><path d="M304.18,48.35a1.32,1.32,0,0,0,1.29-1.45c0-1.45-1.94-2.53-4.21-1.45s-3.77,3.14-3.23,3.38,2.91-.12,2.69.48-2.8.49-3.45.49a1.26,1.26,0,0,0-1.08,1.93c.54,1.32.33-.37,2.16-.37s3.24.12,2.8.49-2.58,1.08-1.07,1.32,6.68.12,6.25-.84-2.69-1.33-1.62-1.69,2.16-1,2.92-.84,1.83-1.21.86-1.57S305.79,48.71,304.18,48.35Z" style="fill:none;stroke:#263238;stroke-linecap:round;stroke-linejoin:round;stroke-width:0.75px"></path><path d="M303.81,43s-1.69-3.62-1.45-1.57S303.45,45,303.81,43Z" style="fill:none;stroke:#263238;stroke-linecap:round;stroke-linejoin:round;stroke-width:0.75px"></path><path d="M299.64,44.58s-2.76-2.89-1.88-1S299.91,46.53,299.64,44.58Z" style="fill:none;stroke:#263238;stroke-linecap:round;stroke-linejoin:round;stroke-width:0.75px"></path><path d="M307.91,44.58s2.76-2.89,1.87-1S307.64,46.53,307.91,44.58Z" style="fill:none;stroke:#263238;stroke-linecap:round;stroke-linejoin:round;stroke-width:0.75px"></path><path d="M309.24,50.64s4-.31,2.08.49S307.74,51.9,309.24,50.64Z" style="fill:none;stroke:#263238;stroke-linecap:round;stroke-linejoin:round;stroke-width:0.75px"></path><path d="M307.66,53.54s3.63,1.68,1.58,1.44S305.74,53.91,307.66,53.54Z" style="fill:none;stroke:#263238;stroke-linecap:round;stroke-linejoin:round;stroke-width:0.75px"></path><path d="M305,56.93s-1.16-3.83-1.21-1.76S304.39,58.78,305,56.93Z" style="fill:none;stroke:#263238;stroke-linecap:round;stroke-linejoin:round;stroke-width:0.75px"></path><path d="M299.71,55.1s-2.1,3.4-.52,2.07S301.52,54.35,299.71,55.1Z" style="fill:none;stroke:#263238;stroke-linecap:round;stroke-linejoin:round;stroke-width:0.75px"></path><path d="M357.12,90a11.22,11.22,0,1,1-14.33,6.8A11.22,11.22,0,0,1,357.12,90Z" style="fill:#fff;stroke:#263238;stroke-linecap:round;stroke-linejoin:round"></path><path d="M356,89.61a11.22,11.22,0,1,1-14.34,6.8A11.23,11.23,0,0,1,356,89.61Z" style="fill:#fff;stroke:#263238;stroke-linecap:round;stroke-linejoin:round"></path><path d="M355.57,90.74a10,10,0,1,1-12.8,6.07A10,10,0,0,1,355.57,90.74Z" style="fill:#fff;stroke:#263238;stroke-linecap:round;stroke-linejoin:round;stroke-width:0.75px"></path><path d="M351.61,98.81a1.32,1.32,0,0,0-.93-1.71c-1.36-.48-3,1-2.77,3.48s1.68,4.61,2.09,4.18.87-2.78,1.36-2.37-.49,2.8-.7,3.41,0,1.73,1.45,1.66-.23-.42.38-2.15,1.21-3,1.4-2.48.15,2.8.89,1.46,2.36-6.26,1.31-6.17-2.16,2.09-2.14.95-.18-2.35.19-3-.52-2.14-1.19-1.34S352.5,97.41,351.61,98.81Z" style="fill:none;stroke:#263238;stroke-linecap:round;stroke-linejoin:round;stroke-width:0.75px"></path><path d="M346.49,97.37s-4,.38-2,.84S348.19,98.36,346.49,97.37Z" style="fill:none;stroke:#263238;stroke-linecap:round;stroke-linejoin:round;stroke-width:0.75px"></path><path d="M346.54,101.82s-3.65,1.62-1.59,1.42S348.46,102.22,346.54,101.82Z" style="fill:none;stroke:#263238;stroke-linecap:round;stroke-linejoin:round;stroke-width:0.75px"></path><path d="M349.32,94s-1.8-3.57-.33-2.11S351.06,94.94,349.32,94Z" style="fill:none;stroke:#263238;stroke-linecap:round;stroke-linejoin:round;stroke-width:0.75px"></path><path d="M355.47,94.81s1-3.85,1.16-1.79S356.16,96.65,355.47,94.81Z" style="fill:none;stroke:#263238;stroke-linecap:round;stroke-linejoin:round;stroke-width:0.75px"></path><path d="M357.68,97.27s2.79-2.85,1.88-1S357.38,99.21,357.68,97.27Z" style="fill:none;stroke:#263238;stroke-linecap:round;stroke-linejoin:round;stroke-width:0.75px"></path><path d="M360,100.9s-4-.2-2.07.54S361.51,102.12,360,100.9Z" style="fill:none;stroke:#263238;stroke-linecap:round;stroke-linejoin:round;stroke-width:0.75px"></path><path d="M356.47,105.29s2.5,3.11,1.78,1.18S356.37,103.33,356.47,105.29Z" style="fill:none;stroke:#263238;stroke-linecap:round;stroke-linejoin:round;stroke-width:0.75px"></path><path d="M311.18,59.37s-5.47-2.56-8.57-2.56-7.3,1.83-10.22,8.39-4.56,13-1.64,18.61,8.39,8.2,11.86,7.47,6.93-6.56,9.85-16.59S313.73,60.83,311.18,59.37Z" style="fill:#fff;stroke:#263238;stroke-linecap:round;stroke-linejoin:round"></path><path d="M292.39,65.2c-2.91,6.57-4.56,13-1.64,18.61a13.84,13.84,0,0,0,9.1,7.43,6.36,6.36,0,0,0-1.26-.69c-1.82-.73-4.55-3.46-5.47-10.57s2.92-13.5,7.12-18.42,10.94-2.19,10.94-2.19-5.47-2.56-8.57-2.56S295.31,58.64,292.39,65.2Z" style="fill:#fff;stroke:#263238;stroke-linecap:round;stroke-linejoin:round"></path><path d="M303.91,73.61s-1.75-12-1.13-12.39,3.38-2.5,3.63-.5S303.91,73.61,303.91,73.61Z" style="fill:#92E3A9"></path><path d="M302.91,74.23S302.66,61.72,301,63.1s-4.25,3.88-3.38,4.25S302.91,74.23,302.91,74.23Z" style="fill:#92E3A9"></path><path d="M302.91,74.23s-5.38-5.75-6.13-5.5-1.38,3.12-1.38,4.5S302.91,74.23,302.91,74.23Z" style="fill:#92E3A9"></path><path d="M302.91,74.23s-7.13.75-7.88,1.88-1,5.13-.38,5.63S302.91,74.23,302.91,74.23Z" style="fill:#92E3A9"></path><path d="M302.91,74.23s-7.38,7.88-7.26,9,1.88,5,3.75,4S302.91,74.23,302.91,74.23Z" style="fill:#92E3A9"></path><path d="M307.91,60l-4,13.64S310,67.1,311,63.72,307.91,60,307.91,60Z" style="fill:#92E3A9"></path><path d="M303.41,75.11s-3.63,12.38-2.5,13.26,3,.88,4.37-1S303.41,75.11,303.41,75.11Z" style="fill:#92E3A9"></path><path d="M303.91,73.61s2.63,11.26,3.13,11.88,2.62-3.5,2.25-5.75S303.91,73.61,303.91,73.61Z" style="fill:#92E3A9"></path><path d="M310,78s2.13-4.76,2.25-6.76-8.38,2.38-8.38,2.38A14.75,14.75,0,0,1,310,78Z" style="fill:#92E3A9"></path><path d="M306,72s6-8.51,6.25-7.13.75,3.63.38,4.25S306,72,306,72Z" style="fill:#92E3A9"></path><path d="M321.56,50.36s-5.47-2.55-8.57-2.55-7.29,1.82-10.21,8.39-4.56,12.94-1.64,18.6S309.53,83,313,82.28s6.93-6.57,9.85-16.6S324.12,51.82,321.56,50.36Z" style="fill:#fff;stroke:#263238;stroke-linecap:round;stroke-linejoin:round"></path><path d="M302.78,56.2c-2.92,6.56-4.56,12.94-1.64,18.6a13.87,13.87,0,0,0,9.1,7.44,5.94,5.94,0,0,0-1.26-.69c-1.82-.73-4.56-3.47-5.47-10.58s2.92-13.5,7.11-18.42,10.94-2.19,10.94-2.19-5.47-2.55-8.57-2.55S305.7,49.63,302.78,56.2Z" style="fill:#fff;stroke:#263238;stroke-linecap:round;stroke-linejoin:round"></path><path d="M314.29,64.6s-1.75-12-1.12-12.39,3.37-2.5,3.63-.5S314.29,64.6,314.29,64.6Z" style="fill:#92E3A9"></path><path d="M313.29,65.22s-.25-12.51-1.87-11.13S307.16,58,308,58.34,313.29,65.22,313.29,65.22Z" style="fill:#92E3A9"></path><path d="M313.29,65.22s-5.38-5.75-6.13-5.5-1.38,3.13-1.38,4.5S313.29,65.22,313.29,65.22Z" style="fill:#92E3A9"></path><path d="M313.29,65.22s-7.13.75-7.88,1.88-1,5.13-.38,5.63S313.29,65.22,313.29,65.22Z" style="fill:#92E3A9"></path><path d="M313.29,65.22s-7.38,7.89-7.25,9,1.87,5,3.75,4S313.29,65.22,313.29,65.22Z" style="fill:#92E3A9"></path><path d="M318.3,51l-4,13.64s6.13-6.51,7.13-9.89S318.3,51,318.3,51Z" style="fill:#92E3A9"></path><path d="M342,48.9a11.43,11.43,0,0,0-.55,6.2c.73,3.1,1.1,3.65,1.1,6.57a12.23,12.23,0,0,1-1.46,6.38,29.67,29.67,0,0,1-3.1,5.29c-1.83,2.37,1.27,1.28-3.1,4s-5.66,4.38-5.66,5.11-2.55,3.46,3.29,3.28,13.31-9.85,14.59-14.59,2.55-15,.73-18.42S344,47.62,342,48.9Z" style="fill:#a6a6a6;stroke:#263238;stroke-linecap:round;stroke-linejoin:round"></path><path d="M343.45,41.42a5.45,5.45,0,0,0-2-5.83c-3.1-2.19-9.12.18-12.95,5.29S325,48.17,324.12,50s-15.14,24.26-19,33.38-7.48,14.59-6.38,23,1.82,15.87,8.57,20.43,6,3.64,6.75,4.55,1.46.73,5.29-.91,8.57-.73,12.76-3.46,8.76-6,10.76-9.85a104.35,104.35,0,0,0,9.67-23c3.1-11.31,4.74-21.89,4.92-25.35s2.92-11.85,3.1-15.68.73-4.56-3.28-8.94-7.66-2.74-9.3-1.1-6,2.92-6,5.84,3.28,5.65,3.83,10.94a24.47,24.47,0,0,1-1.46,12,38,38,0,0,1-6,8.57c-2,2-6.75,3.65-7.29,2a59.82,59.82,0,0,1-2-11.31A21.68,21.68,0,0,1,332,60.21c2.55-4.74,4.92-7.84,6.75-10.94S341.81,46.53,343.45,41.42Z" style="fill:#d1d1d1;stroke:#263238;stroke-linecap:round;stroke-linejoin:round"></path><path d="M321.56,127.14a18.58,18.58,0,0,0-7.29,1.28,37.41,37.41,0,0,1-5.66-3.83c-2-1.83-7.84-9.49-7.29-20.61s8.75-27.54,10.76-31,10.21-15.5,12.4-19,2.37-4.93,3.1-8.94c.47-2.57,3.56-6.27,5.72-8.59a17.4,17.4,0,0,0-4.81,4.4C324.66,46,325,48.17,324.12,50s-15.14,24.26-19,33.38-7.48,14.59-6.38,23,1.82,15.87,8.57,20.43,6,3.64,6.75,4.55,1.46.73,5.29-.91,8.57-.73,12.76-3.46,8.76-6,10.76-9.85c-1.46.91-8,4.92-11.31,7.11S326.12,127.14,321.56,127.14Z" style="fill:#263238;stroke:#263238;stroke-linecap:round;stroke-linejoin:round"></path><path d="M317.06,102.65a13.66,13.66,0,0,0,3.77.42" style="fill:none;stroke:#263238;stroke-linecap:round;stroke-linejoin:round"></path><path d="M306.79,89.94s-.18,6.2,4.38,9.84a14.78,14.78,0,0,0,3.7,2.17" style="fill:none;stroke:#263238;stroke-linecap:round;stroke-linejoin:round"></path><path d="M305.15,103.07s4.74,1.64,8.39,2.73,5.47.55,5.47.55" style="fill:none;stroke:#263238;stroke-linecap:round;stroke-linejoin:round"></path><path d="M312.84,111.59a14.16,14.16,0,0,0,4.89-.5" style="fill:none;stroke:#263238;stroke-linecap:round;stroke-linejoin:round"></path><path d="M304.42,110a38.3,38.3,0,0,0,6.43,1.42" style="fill:none;stroke:#263238;stroke-linecap:round;stroke-linejoin:round"></path><path d="M322.84,113.46s8.57,5.29,13.86,4.56" style="fill:none;stroke:#263238;stroke-linecap:round;stroke-linejoin:round"></path><path d="M325.76,108.54s7.11,3.65,14.22,1.09,8.58-7.48,8.58-7.48" style="fill:none;stroke:#263238;stroke-linecap:round;stroke-linejoin:round"></path><path d="M345.81,98.72a8.24,8.24,0,0,0,1.47-2.4" style="fill:none;stroke:#263238;stroke-linecap:round;stroke-linejoin:round"></path><path d="M326.31,104a18.12,18.12,0,0,0,13.13-.55,21.28,21.28,0,0,0,4-2.41" style="fill:none;stroke:#263238;stroke-linecap:round;stroke-linejoin:round"></path><path d="M326.31,73.34s-8.94.55-14.05,6.93" style="fill:none;stroke:#263238;stroke-linecap:round;stroke-linejoin:round"></path><path d="M321.34,69.94a27.17,27.17,0,0,1,5.88-1.53" style="fill:none;stroke:#263238;stroke-linecap:round;stroke-linejoin:round"></path><path d="M315.18,72.79a42,42,0,0,1,3.8-1.9" style="fill:none;stroke:#263238;stroke-linecap:round;stroke-linejoin:round"></path><path d="M322.11,62.21A75.35,75.35,0,0,1,330,60.39" style="fill:none;stroke:#263238;stroke-linecap:round;stroke-linejoin:round"></path><path d="M334.09,50.8a11.21,11.21,0,0,1,1.7-.08" style="fill:none;stroke:#263238;stroke-linecap:round;stroke-linejoin:round"></path><path d="M325.94,53.1a43.55,43.55,0,0,1,4.74-1.6" style="fill:none;stroke:#263238;stroke-linecap:round;stroke-linejoin:round"></path><path d="M350,54.37s5.48,2.74,6.75,6.57" style="fill:none;stroke:#263238;stroke-linecap:round;stroke-linejoin:round"></path><path d="M349.83,62.94s6.39,3.65,6.75,8.94" style="fill:none;stroke:#263238;stroke-linecap:round;stroke-linejoin:round"></path><path d="M347.1,77.35s5.1,4,4,12.59" style="fill:none;stroke:#263238;stroke-linecap:round;stroke-linejoin:round"></path><path d="M328.13,85.56a3.83,3.83,0,0,0-1.82,4c.36,2.92.91,3.1.36,4a138.28,138.28,0,0,0-5.11,15,36,36,0,0,1-2.73,8.2A19.58,19.58,0,0,0,317,123" style="fill:none;stroke:#263238;stroke-linecap:round;stroke-linejoin:round"></path><path d="M333.24,88.66s-.19,3.83-1.65,4.19a15.84,15.84,0,0,0-3.1,1.28l-1.27,4.92" style="fill:none;stroke:#263238;stroke-linecap:round;stroke-linejoin:round"></path><path d="M324.66,82.09s-6.2-.36-10.39,6.57" style="fill:none;stroke:#263238;stroke-linecap:round;stroke-linejoin:round"></path></g><g id="freepik--food-2--inject-50"><circle cx="170.59" cy="81.45" r="59.94" style="fill:#fff;stroke:#263238;stroke-linecap:round;stroke-linejoin:round"></circle><path d="M189.25,27.23s-1.69-3.86-6.28-1.69-4.35,5.56-4.35,5.56-6.52,4.35-6,7.25,3.39,8,3.39,8-3.39,5.56-2.9,8.21,1.93,9.18,2.17,9.91-5.8,3.14-4.83,6.28,3.38,7,4.35,7.25,3.38,1.21,3.38,1.21,1.45,7.49,3.14,9.9a10.92,10.92,0,0,0,3.62,3.38s3.87,7.25,15.23,9.43S217,89.57,217,89.57s3.38-4.35,3.86-6.53-.48-10.14-.24-10.87a17.77,17.77,0,0,0,1.93-9.42c-.48-5.08-3.38-13-5.79-15A10.18,10.18,0,0,0,212,45.6s-6.52-9.19-9.42-10.64a12.58,12.58,0,0,0-5.07-1.44Z" style="fill:#92E3A9;stroke:#263238;stroke-linecap:round;stroke-linejoin:round"></path><path d="M192.45,35.58A18.25,18.25,0,0,0,194.57,33" style="fill:none;stroke:#263238;stroke-linecap:round;stroke-linejoin:round"></path><path d="M177.66,45.35A64,64,0,0,0,190,37.79" style="fill:none;stroke:#263238;stroke-linecap:round;stroke-linejoin:round"></path><path d="M178.14,62.75s25.61-10.63,31.17-15.46" style="fill:none;stroke:#263238;stroke-linecap:round;stroke-linejoin:round"></path><path d="M206.2,71.8a53.05,53.05,0,0,1,11.8-.6" style="fill:none;stroke:#263238;stroke-linecap:round;stroke-linejoin:round"></path><path d="M181.52,77.73a175.42,175.42,0,0,1,21.83-5.48" style="fill:none;stroke:#263238;stroke-linecap:round;stroke-linejoin:round"></path><path d="M203.64,90.4c4.8-.27,9.75-.57,13.4-.83" style="fill:none;stroke:#263238;stroke-linecap:round;stroke-linejoin:round"></path><path d="M187.56,91.26s5.57-.28,12.28-.65" style="fill:none;stroke:#263238;stroke-linecap:round;stroke-linejoin:round"></path><circle cx="146.05" cy="50.65" r="21.11" style="fill:#fff;stroke:#263238;stroke-linecap:round;stroke-linejoin:round"></circle><circle cx="146.05" cy="47.03" r="22.14" transform="translate(66.43 178.19) rotate(-76.59)" style="fill:#fff;stroke:#263238;stroke-linecap:round;stroke-linejoin:round"></circle><circle cx="146.05" cy="47.03" r="19.28" style="fill:#d1d1d1;stroke:#263238;stroke-linecap:round;stroke-linejoin:round"></circle><path d="M159.17,66.26l-3,2.46s8.11,7.14,10.29,7.14,4.34-2.17,4.16-3.62S163,63,163,63Z" style="fill:#fff;stroke:#263238;stroke-linecap:round;stroke-linejoin:round"></path><line x1="159.17" y1="66.26" x2="165.87" y2="73.14" style="fill:none;stroke:#263238;stroke-linecap:round;stroke-linejoin:round"></line><circle cx="138.61" cy="37.19" r="1.36" style="fill:#263238"></circle><circle cx="145.41" cy="35.47" r="0.72" style="fill:#263238"></circle><circle cx="144.41" cy="44.61" r="0.82" style="fill:#263238"></circle><path d="M152.47,43.71a1,1,0,1,1-1-1A1,1,0,0,1,152.47,43.71Z" style="fill:#263238"></path><circle cx="151.38" cy="40.36" r="1.09" style="fill:#263238"></circle><circle cx="148.76" cy="33.2" r="1.36" style="fill:#263238"></circle><circle cx="156.45" cy="38" r="1.09" style="fill:#263238"></circle><circle cx="157.36" cy="45.25" r="0.54" style="fill:#fff;stroke:#263238;stroke-linecap:round;stroke-linejoin:round"></circle><circle cx="151.02" cy="48.69" r="1.09" style="fill:#263238"></circle><path d="M137.8,43.71a.64.64,0,0,1-.64.63.63.63,0,1,1,0-1.26A.64.64,0,0,1,137.8,43.71Z" style="fill:#263238"></path><path d="M141.24,42a.91.91,0,1,1-.91-.91A.9.9,0,0,1,141.24,42Z" style="fill:#263238"></path><path d="M134.9,38.37a.73.73,0,0,1-1.45,0,.73.73,0,1,1,1.45,0Z" style="fill:#263238"></path><path d="M132.18,42.53s7.83,10.75,16.16,10,10.65-6.22,12.28-3,.48,8-5.43,11.41c-9.14,5.3-20.19.17-23.64-4.72S126.39,42.89,132.18,42.53Z" style="fill:#263238;stroke:#263238;stroke-linecap:round;stroke-linejoin:round"></path><path d="M135.26,82.22s-3.39-.73-9.91,1.69-5.8,14.5-1.45,18.12a36.45,36.45,0,0,0,9.91,5.56s-1.21,4.83,1.45,6.76,9.9,4.35,9.9,4.35a10.2,10.2,0,0,0,2.9,7.73c3.38,3.38,9.18,3.38,10.39,2.42s2.9-2.18,2.9-2.18,7.49,5.8,10.39,4.83,6-2.41,6-2.41,6.76,4.11,12.32,3.62,11.84-2.41,12.08-6.52-3.14-10.39-3.87-11.6a40.61,40.61,0,0,1-1.93-4.59s1-1.69-1.45-4.59S186,97,185.51,96s-.73-5.8-2.18-8-16.67-9.67-21-9.91A17,17,0,0,0,154.1,80s-1-.48-7.73-1.69S136,78.84,135.26,82.22Z" style="fill:#92E3A9;stroke:#263238;stroke-linecap:round;stroke-linejoin:round"></path><path d="M135.26,96.08a82.31,82.31,0,0,1-1,8.85" style="fill:none;stroke:#263238;stroke-linecap:round;stroke-linejoin:round"></path><path d="M135.5,85.6s.08,3.58-.12,8.18" style="fill:none;stroke:#263238;stroke-linecap:round;stroke-linejoin:round"></path><path d="M151.89,103.33c-3.57,10.31-6.73,15.37-6.73,15.37" style="fill:none;stroke:#263238;stroke-linecap:round;stroke-linejoin:round"></path><path d="M154.58,82.7s1.94,6.53-1.93,18.36" style="fill:none;stroke:#263238;stroke-linecap:round;stroke-linejoin:round"></path><path d="M179.84,103.08c-3.61,6.27-9.93,16.48-15.83,22.38" style="fill:none;stroke:#263238;stroke-linecap:round;stroke-linejoin:round"></path><path d="M182.85,97.68s-.59,1.12-1.61,2.95" style="fill:none;stroke:#263238;stroke-linecap:round;stroke-linejoin:round"></path><path d="M190.84,117.8c-3.65,4-9.26,9.77-13.06,11.29" style="fill:none;stroke:#263238;stroke-linecap:round;stroke-linejoin:round"></path><path d="M194.45,113.63s-.81,1-2.1,2.47" style="fill:none;stroke:#263238;stroke-linecap:round;stroke-linejoin:round"></path></g><g id="freepik--food-1--inject-50"><circle cx="95.14" cy="200.76" r="59.94" transform="translate(-114.09 126.07) rotate(-45)" style="fill:#fff;stroke:#263238;stroke-linecap:round;stroke-linejoin:round"></circle><path d="M106.67,203a12.6,12.6,0,0,0-6.54,8.79c-1.4,6.54,1.28,20.27,9.33,23.16s17.48,2.25,23.91-5.79,6.22-8.47,7.72-12.65-2.68-14.69-8.36-18.23-15-4.29-15.77-2.68-.64,2.47-1.82,3.22S108.6,201.77,106.67,203Z" style="fill:#fff;stroke:#263238;stroke-linecap:round;stroke-linejoin:round"></path><path d="M117.5,205.52a5.15,5.15,0,0,0-5,2c-1.82,2.68-2.25,6.11-1.07,7.72s.43,3.65,2.36,5.36,7.5,3.32,11.15.54,7.4-11.69,2.46-14.8S118.36,200.8,117.5,205.52Z" style="fill:#92E3A9;stroke:#263238;stroke-linecap:round;stroke-linejoin:round"></path><path d="M105.06,210.35s-8.15-3.43-13.94-3-12.22,3-15,8-3.54,9.86-2.25,13.61,3.75,4.4,4.29,7.94,6.32,9.65,14.79,9.22,15.66-3.54,17.91-14.15S110.74,214.31,105.06,210.35Z" style="fill:#fff;stroke:#263238;stroke-linecap:round;stroke-linejoin:round"></path><path d="M91.87,218.93s-4.29.42-5.9,4-.64,8.58,1.93,10.51,7.83,3.32,9.65,2.15,5.15-3.54,5.47-7.19-.85-7.4-2.89-8.47S93.59,218.17,91.87,218.93Z" style="fill:#92E3A9;stroke:#263238;stroke-linecap:round;stroke-linejoin:round"></path><path d="M68.89,226.45A5.62,5.62,0,0,1,64,223.52c-11.85-21.78-16.42-39.44-16.61-40.18a5.61,5.61,0,1,1,10.88-2.77,184.31,184.31,0,0,0,15.59,37.58,5.61,5.61,0,0,1-4.92,8.3Z" style="fill:#92E3A9;stroke:#263238;stroke-linecap:round;stroke-linejoin:round"></path><path d="M64.61,201.13l-10-7.45a33.56,33.56,0,0,1,6,2.69,19.55,19.55,0,0,1,3.23,3" style="fill:none;stroke:#263238;stroke-linecap:round;stroke-linejoin:round;stroke-width:0.75px"></path><path d="M68.65,212.62l-10-7.45a32.53,32.53,0,0,1,6,2.69,19.55,19.55,0,0,1,3.24,3" style="fill:none;stroke:#263238;stroke-linecap:round;stroke-linejoin:round;stroke-width:0.75px"></path><path d="M72.15,222.67l-10-7.45a32.53,32.53,0,0,1,6,2.69,19.25,19.25,0,0,1,3.23,3" style="fill:none;stroke:#263238;stroke-linecap:round;stroke-linejoin:round;stroke-width:0.75px"></path><path d="M58.33,186.68l-10-7.44a32.82,32.82,0,0,1,6,2.69,19.25,19.25,0,0,1,3.23,3" style="fill:none;stroke:#263238;stroke-linecap:round;stroke-linejoin:round;stroke-width:0.75px"></path><path d="M77.7,212.08a5.61,5.61,0,0,1-4.94-2.93C60.91,187.37,56.34,169.71,56.15,169A5.61,5.61,0,0,1,67,166.19a184.25,184.25,0,0,0,15.59,37.59,5.61,5.61,0,0,1-4.92,8.3Z" style="fill:#92E3A9;stroke:#263238;stroke-linecap:round;stroke-linejoin:round"></path><path d="M73.42,186.76l-10-7.45a32.82,32.82,0,0,1,6,2.69,19.73,19.73,0,0,1,3.23,3" style="fill:none;stroke:#263238;stroke-linecap:round;stroke-linejoin:round;stroke-width:0.75px"></path><path d="M77.46,198.24l-10-7.45a32.8,32.8,0,0,1,6,2.7,18.79,18.79,0,0,1,3.23,3" style="fill:none;stroke:#263238;stroke-linecap:round;stroke-linejoin:round;stroke-width:0.75px"></path><path d="M81,208.29l-10-7.45a32.8,32.8,0,0,1,6,2.7,18.79,18.79,0,0,1,3.23,3" style="fill:none;stroke:#263238;stroke-linecap:round;stroke-linejoin:round;stroke-width:0.75px"></path><path d="M67.14,172.31l-10-7.45a33.56,33.56,0,0,1,6,2.69,19.55,19.55,0,0,1,3.23,3" style="fill:none;stroke:#263238;stroke-linecap:round;stroke-linejoin:round;stroke-width:0.75px"></path><path d="M98,189.1s4.56,8.66,4.75,9.87,2.7.37,2.7.37,20.76-8.38,24.67-11.45,11.55-4.75,11.27-7-7.26-15.74-10.24-20.3-6-12.67-8.19-13.5-6.43,2.51-11.55,5.3S92,158.93,91.08,162.84,98,189.1,98,189.1Z" style="fill:#fff;stroke:#263238;stroke-linecap:round;stroke-linejoin:round"></path><path d="M141.36,180.91c-.27-2.16-6.77-14.8-9.91-19.78,3.1,6.43,7.35,15.32,7.58,16.14.38,1.31.84,3.26-.09,4.1s-3.63,1.4-6.05,2.33-26.54,12.85-26.54,12.85-2.14.93-2.61.09S95,175.79,92.1,168.06c-.46-1.23-.78-2.24-1-3.06.83,6.83,6.87,24.1,6.87,24.1s4.56,8.66,4.75,9.87,2.7.37,2.7.37,20.76-8.38,24.67-11.45S141.64,183.14,141.36,180.91Z" style="fill:#d1d1d1;stroke:#263238;stroke-linecap:round;stroke-linejoin:round"></path><path d="M78.8,149.52s-3.4-.62-3.4,3.25-.93,35.85.46,37.71,4,2,5.41,1.85,24.42-1.39,28.28-1.08,4.33-.46,4.33-3.25,1.7-36.16.93-37.09a3.05,3.05,0,0,0-2.78-1.54c-1.55,0-17,.15-21.79.15Z" style="fill:#fff;stroke:#263238;stroke-linecap:round;stroke-linejoin:round"></path><path d="M113.88,188c0-2.78,1.7-36.16.93-37.09a4,4,0,0,0-1.49-1.32l-.17,0a15.52,15.52,0,0,1,.56,2.14c.28,1.4-1.12,34.83-1.31,36.5s-2.51,1.12-8.1,1.12-16.48-.19-20,.74a10.19,10.19,0,0,1-7.26-.37c-1-.52-1.61-3.63-1.8-4.83.12,3,.32,5.12.64,5.56,1.39,1.85,4,2,5.41,1.85s24.42-1.39,28.28-1.08S113.88,190.79,113.88,188Z" style="fill:#d1d1d1;stroke:#263238;stroke-linecap:round;stroke-linejoin:round"></path><path d="M80.68,153.6a.89.89,0,1,1-.88-.89A.89.89,0,0,1,80.68,153.6Z" style="fill:none;stroke:#263238;stroke-linecap:round;stroke-linejoin:round;stroke-width:0.75px"></path><circle cx="86.41" cy="156.86" r="1.15" style="fill:none;stroke:#263238;stroke-linecap:round;stroke-linejoin:round;stroke-width:0.75px"></circle><circle cx="81.56" cy="161.35" r="0.71" style="fill:none;stroke:#263238;stroke-linecap:round;stroke-linejoin:round;stroke-width:0.75px"></circle><circle cx="86.32" cy="163.65" r="0.71" style="fill:none;stroke:#263238;stroke-linecap:round;stroke-linejoin:round;stroke-width:0.75px"></circle><path d="M106.25,156.68a1,1,0,1,1-1-1A1,1,0,0,1,106.25,156.68Z" style="fill:none;stroke:#263238;stroke-linecap:round;stroke-linejoin:round;stroke-width:0.75px"></path><circle cx="133.23" cy="180.22" r="1.06" style="fill:none;stroke:#263238;stroke-linecap:round;stroke-linejoin:round;stroke-width:0.75px"></circle><circle cx="129.09" cy="174.67" r="0.79" style="fill:none;stroke:#263238;stroke-linecap:round;stroke-linejoin:round;stroke-width:0.75px"></circle><path d="M123.53,165.85a.62.62,0,1,1-.61-.62A.61.61,0,0,1,123.53,165.85Z" style="fill:none;stroke:#263238;stroke-linecap:round;stroke-linejoin:round;stroke-width:0.75px"></path><path d="M128.47,167.53a.88.88,0,1,1-.88-.88A.88.88,0,0,1,128.47,167.53Z" style="fill:none;stroke:#263238;stroke-linecap:round;stroke-linejoin:round;stroke-width:0.75px"></path></g><g id="freepik--Character--inject-50"><path d="M236.47,157s-6.66-8.81-15-6.34-5.66,11.63-8,13-15,.7-17.65,9.16,2,18-.33,21.15-18.64-3.53-22.64,14.09,10.65,20.09,7.33,24.32-6.33,5.29-5,11.28,8.32,4.93,7.33,9.51-6.66,6-3.33,14.8,11.65,5.64,16,7,4.66,6.7,12.65,7.05,16.65-6,19-4.93,65.93.35,75.58-3.17,19-3.88,20.65-11.63-1.33-7.76,4.33-12S333,236.62,329,231s-6.32-7-5-13.74,6.66-7.76,1.33-16.92-12-10.92-12.65-13.39-2.59-19.47-13.17-26.12c-6.53-4.11-19.8-3.48-25.46-4.54s-6.32-9.87-19.31-11.63S235.8,151.69,236.47,157Z" style="fill:#263238;stroke:#263238;stroke-linecap:round;stroke-linejoin:round"></path><path d="M366.61,392.69c-1-9-5.32-27.64-8.65-38.29s-12.32-50.95-18-63.27-21-19-32.63-20.31-22.65,5.33-22.65,5.33c-6.31,2.4-27.53,18.09-31.61,21.13-4.07-3-25.3-18.73-31.61-21.13,0,0-11-6.66-22.64-5.33s-27,8-32.63,20.31-14.65,52.61-18,63.27-7.66,29.3-8.66,38.29,16,31.3,21.65,31.63,29.3-34,29.3-34l-5,31.3H320.67l-5-31.3s23.64,34.29,29.3,34S367.61,401.68,366.61,392.69Z" style="fill:#92E3A9;stroke:#263238;stroke-linecap:round;stroke-linejoin:round"></path><path d="M233.84,167.5s2.21,5.25,6.9,7.73,14.91-4.14,13.81.56-3.59,9.66,3,12.42,14.09-3.86,14.36,1.11-1.1,11,4.42,12.7,8.56-.55,9.39.55,3.59,4.7,3.87,6.63,4.69,26,3,34.52-11.59,28.44-10.77,33.41,3.87,6.07,3.87,15.74-14.08,30.93-24.85,35.07-24.58-7.73-30.38-21.27-8-27.61-8-32.58-8.29-15.19-10-21.26-4.64-37.72-3.25-46.25c1.86-11.34-.06-13.42,5.19-17.29s10.21-6.32,11.87-10.47S233.84,167.5,233.84,167.5Z" style="fill:#fff;stroke:#263238;stroke-linecap:round;stroke-linejoin:round"></path><path d="M271.73,277.74s-10.26,7.78-23.38,17.47-28.24,4.27-28.24,4.27l6.7-22.33s16.47,7.64,24.71,8.29S271.73,277.74,271.73,277.74Z" style="fill:#263238;stroke:#263238;stroke-linecap:round;stroke-linejoin:round"></path><path d="M245.43,226.6s-2.2,4.14-2.2,6.62,3.31,3.59,4.41,3.87" style="fill:none;stroke:#263238;stroke-linecap:round;stroke-linejoin:round"></path><path d="M233.56,251.45s3,3,13.53,2.48,16-4.42,19.61-7.73" style="fill:none;stroke:#263238;stroke-linecap:round;stroke-linejoin:round"></path><path d="M237.14,205c-.9.09-11.91-6.81-20.64,5.75" style="fill:none;stroke:#263238;stroke-linecap:round;stroke-linejoin:round"></path><path d="M256,203.66s11.49-9.15,21.94.26" style="fill:none;stroke:#263238;stroke-linecap:round;stroke-linejoin:round"></path><ellipse cx="233.01" cy="214.54" rx="2.91" ry="3.95" style="fill:#263238;stroke:#263238;stroke-linecap:round;stroke-linejoin:round"></ellipse><path d="M222.82,222.23s-2.28-11,10.19-11.64" style="fill:none;stroke:#263238;stroke-linecap:round;stroke-linejoin:round"></path><path d="M271.69,211.42c0,2.18-1.31,4-2.91,4s-2.92-1.77-2.92-4,1.31-3.95,2.92-3.95S271.69,209.24,271.69,211.42Z" style="fill:#263238;stroke:#263238;stroke-linecap:round;stroke-linejoin:round"></path><path d="M259.21,218.28s-2.49-12.27,10.61-10.4" style="fill:none;stroke:#263238;stroke-linecap:round;stroke-linejoin:round"></path><path d="M219.28,227.23s6.91-2.81,12.52-1.94" style="fill:none;stroke:#263238;stroke-linecap:round;stroke-linejoin:round"></path><path d="M265.69,220.75s9.94-1.08,14.25.87" style="fill:none;stroke:#263238;stroke-linecap:round;stroke-linejoin:round"></path><path d="M201.3,212.44s-7.46,19.17-10.12,29.81-3,11.89-.35,14.91,20,27,20.4,28.21-3.37,9.4-3.37,9.4l13.84,9.94s11.71-17.57,11.89-24.13-5.68-15.62-8-17.75-17.38-17.56-17.38-17.56,5.5-15.08,5.32-21.83-3.73-5.85-3.73-5.85-.71-7.63-2.13-8.7-3.37.89-3.72,1.6S201.3,212.44,201.3,212.44Z" style="fill:#fff;stroke:#263238;stroke-linecap:round;stroke-linejoin:round"></path><path d="M209.81,217.59s-6.74,18.45-9.05,23.6-3,6.92-1.42,8.69a28.8,28.8,0,0,1,2.31,2.84" style="fill:none;stroke:#263238;stroke-linecap:round;stroke-linejoin:round"></path><path d="M204,210.49s-5.68,14.37-6.57,19.52-6.39,17.92-5.5,20.4" style="fill:none;stroke:#263238;stroke-linecap:round;stroke-linejoin:round"></path><path d="M192.78,251.83s-.53.71,3.19,3.2" style="fill:none;stroke:#263238;stroke-linecap:round;stroke-linejoin:round"></path><path d="M202.1,290.34s10.8,4.15,18,9.14,9.14,7.2,8.59,9.42S207.09,360.43,204,371s-11.36,34.35-24.38,45.16-24.94,9.42-29.09,5.26-13.3-16.9-11.36-26.32.28-19.67,21.61-44.33c10.51-12.15,34.35-51.25,36-53.47S198.78,289,202.1,290.34Z" style="fill:#92E3A9;stroke:#263238;stroke-linecap:round;stroke-linejoin:round"></path><path d="M301.44,212.18s7.92,19,10.85,29.55,3.31,11.81.72,14.89-19.37,27.46-19.7,28.71,3.61,9.31,3.61,9.31l-13.59,10.28s-12.15-17.27-12.49-23.83,5.29-15.75,7.55-17.94,16.94-18,16.94-18-5.87-14.94-5.86-21.68,3.58-5.95,3.58-5.95.52-7.64,1.92-8.74,3.39.8,3.76,1.5S301.44,212.18,301.44,212.18Z" style="fill:#fff;stroke:#263238;stroke-linecap:round;stroke-linejoin:round"></path><path d="M293.05,217.53s7.2,18.28,9.63,23.37,3.19,6.84,1.64,8.66a29.23,29.23,0,0,0-2.24,2.89" style="fill:none;stroke:#263238;stroke-linecap:round;stroke-linejoin:round"></path><path d="M298.73,210.29s6,14.23,7,19.35,6.83,17.76,6,20.26" style="fill:none;stroke:#263238;stroke-linecap:round;stroke-linejoin:round"></path><path d="M310.93,251.34s.55.7-3.11,3.28" style="fill:none;stroke:#263238;stroke-linecap:round;stroke-linejoin:round"></path><path d="M303,290.34s-10.8,4.15-18,9.14-9.15,7.2-8.59,9.42,21.61,51.53,24.65,62.06,11.36,34.35,24.38,45.16,24.94,9.42,29.09,5.26,13.3-16.9,11.36-26.32-.27-19.67-21.61-44.33c-10.51-12.15-34.35-51.25-36-53.47S306.36,289,303,290.34Z" style="fill:#92E3A9;stroke:#263238;stroke-linecap:round;stroke-linejoin:round"></path><path d="M245.09,373.67c1.64,2.5,3.41,5,5.34,7.42" style="fill:none;stroke:#263238;stroke-linecap:round;stroke-linejoin:round"></path><path d="M226.77,326.35a130,130,0,0,0,14.35,40.75" style="fill:none;stroke:#263238;stroke-linecap:round;stroke-linejoin:round"></path><path d="M222.13,340.27s5.11,36.18,15.77,52.42" style="fill:none;stroke:#263238;stroke-linecap:round;stroke-linejoin:round"></path><path d="M275.83,344.7a81.55,81.55,0,0,1-8.7,22" style="fill:none;stroke:#263238;stroke-linecap:round;stroke-linejoin:round"></path><path d="M279.19,324a114.11,114.11,0,0,1-1.71,13.08" style="fill:none;stroke:#263238;stroke-linecap:round;stroke-linejoin:round"></path></g><g id="freepik--Plate--inject-50"><ellipse cx="253.39" cy="439.12" rx="78.37" ry="23.48" style="fill:#263238;stroke:#263238;stroke-linecap:round;stroke-linejoin:round"></ellipse><ellipse cx="253.39" cy="436.17" rx="82.82" ry="23.48" style="fill:#fff;stroke:#263238;stroke-linecap:round;stroke-linejoin:round"></ellipse><ellipse cx="253.39" cy="435.29" rx="79.46" ry="21.65" style="fill:#fff;stroke:#263238;stroke-linecap:round;stroke-linejoin:round"></ellipse><ellipse cx="253.39" cy="439.6" rx="59.92" ry="16.67" style="fill:none;stroke:#263238;stroke-linecap:round;stroke-linejoin:round"></ellipse><path d="M196.17,458.09s41.78-17.5,46.21-19.33,6.44-.71,6.44-.71,16.18-8,29.09-14.53c13.83-6.95,22.25-12.17,27.93-12.87s5.16,4.81,1.6,7.46-34.69,13.33-40.88,16.05c-6,2.64-11.57,4.69-13.42,5.82s-11.39,4.73-13,5.47-18.6,8.46-27.8,11.37c-8.88,2.8-12.64,2.8-14.74,2.66S195.74,458.93,196.17,458.09Z" style="fill:#d1d1d1;stroke:#263238;stroke-linecap:round;stroke-linejoin:round"></path><path d="M297.85,452.86c-2.54-3-10-8.16-11-8.34s-1.61,0-1.08.75,5.07,3.8,8,6.37a69.3,69.3,0,0,1,5,5l-.69.3c-.55-.53-1.46-1.45-2.58-2.73-1.9-2.17-10.5-8.07-11.14-8.34s-1.58-.35-1.62.18,3.73,2.58,7.5,5.5c2.88,2.23,5.68,4.88,6.72,5.88l-.61.27c-.85-.7-2.71-2.17-5.1-4.09a112.56,112.56,0,0,0-9.45-6.74c-.74-.36-1.5-.34-1.4.09s4.07,2.68,7.49,5.32c2.73,2.11,6.11,5,7.2,6l-.78.35s-9.37-7.81-14.45-10.22-9.36-3.7-8.88-4.94a32.27,32.27,0,0,1-9.32-2.84c-4.91-2.38-29.9-13.82-41.63-18.52-12.32-4.93-17.3-5.89-14.41-8.27s7.57-2.42,13.84.71c6.09,3,34.29,20.23,35.64,20.8s6.69,4.42,11.8,5.5,11.43-.32,15.78.95,15.75,8.06,18,14l-.48.21C300,455.46,299.23,454.52,297.85,452.86Z" style="fill:#d1d1d1;stroke:#263238;stroke-linecap:round;stroke-linejoin:round"></path></g></svg>
